<?xml version="1.0" encoding="UTF-8" standalone="no"?>
<!-- Created with Inkscape (http://www.inkscape.org/) -->

<svg
   version="1.1"
   id="svg1"
   width="1024"
   height="1024"
   viewBox="0 0 1024 1024"
   xmlns="http://www.w3.org/2000/svg"
   xmlns:svg="http://www.w3.org/2000/svg">
  <defs
     id="defs1" />
  <circle
     style="display:inline;fill:#080808;fill-opacity:1;stroke-width:1.19149"
     id="path2"
     cx="512"
     cy="512"
     r="501.62885" />
  <g
     id="g1">
    <path
       style="fill:#ffffff;stroke-width:1.32229"
       d="M 424.68651,799.5954 C 314.8108,784.4051 219.60885,707.22878 185.50887,605.70386 c -15.79082,-47.01352 -18.7998,-98.06125 -8.54106,-144.89987 4.4894,-20.49747 14.38499,-48.64254 23.36856,-66.46504 29.25856,-58.04599 86.25958,-110.38183 148.41696,-136.26997 31.8702,-13.27372 62.64328,-20.36774 99.96965,-23.0457 24.39769,-1.75039 346.96443,-1.70256 346.96443,0.0514 0,0.65131 -1.99227,4.91806 -4.42726,9.48168 -2.43498,4.56361 -9.06321,17.22294 -14.72939,28.13183 -5.66617,10.9089 -15.21327,29.05733 -21.21578,40.32985 -6.0025,11.27253 -17.54807,33.28865 -25.65683,48.92474 -8.10876,15.63608 -15.6313,29.32179 -16.71677,30.41268 -1.71807,1.72668 -19.04226,2.07782 -133.82549,2.71259 -118.76043,0.65674 -132.68493,0.95352 -140.24149,2.98901 -41.7618,11.24928 -74.75683,41.33577 -88.72148,80.9006 -19.78435,56.05328 6.66898,117.4138 63.20764,146.61486 32.30537,16.68507 74.18086,19.71004 110.16679,7.95816 21.72179,-7.09367 44.08435,-21.2457 61.21339,-38.73857 l 7.89234,-8.05999 h -73.01513 c -54.76413,0 -73.01514,-0.38575 -73.01514,-1.54323 0,-0.84878 4.38929,-9.92299 9.75401,-20.16492 5.36472,-10.24194 19.40018,-37.06765 31.18992,-59.6127 11.78974,-22.54505 22.38993,-41.73478 23.55596,-42.64385 1.666,-1.29885 32.51099,-1.65287 144.01354,-1.65287 H 797.0097 V 629.6121 c 0,151.41653 -0.21065,168.70818 -2.07788,170.57543 -1.84423,1.84422 -11.28103,2.07789 -83.9189,2.07789 -79.34628,0 -81.88244,-0.0774 -83.19953,-2.53838 -0.90038,-1.68242 -1.25049,-32.44857 -1.03824,-91.23811 0.17614,-48.78485 0.0132,-88.6997 -0.36203,-88.69965 -0.37525,5e-5 -4.96273,8.47928 -10.19442,18.84273 -5.23167,10.36345 -14.193,27.7681 -19.91406,38.67698 -26.39722,50.33415 -59.7861,115.67768 -59.7861,117.00407 0,0.80695 -1.57447,2.92635 -3.49882,4.70977 l -3.49881,3.24259 -43.77305,-0.13999 c -34.35467,-0.10989 -47.4929,-0.65425 -61.06135,-2.53009 z"
       id="path1" />
  </g>
</svg>
